# xmcd
#
# Track frame offsets:
#	900
#	15811
#	33092
#	46338
#	59314
#	82130
#	95406
#	110752
#	128783
#	145854
#	161170
#	175631
#
# Disc length: 2473 seconds
#
# Revision: 0
# Processed by: cddbd v1.5.2PL0 Copyright (c) Steve Scherf et al.
# Submitted via: cddb-tool 0.4.7
#
DISCID=95099d0c
DTITLE=Nana Mouskouri - Wenn Ich Träum
DYEAR=1980
DGENRE=Pop
TTITLE0=Was war das bleibt
TTITLE1=Mama laß den Tiger raus
TTITLE2=Wenn ich träum'
TTITLE3=Schiffe die sich nachts begegnen
TTITLE4=Das Fest
TTITLE5=Blühen und Welken
TTITLE6=Des einen Freud ist des andern Leid
TTITLE7=La Provence
TTITLE8=Venedig im Regen
TTITLE9=Darum bin ich noch bei dir
TTITLE10=Schlag nicht so laut mein Herz
TTITLE11=Adieu mein kleiner Gardeoffizier
EXTD=
EXTT0=
EXTT1=
EXTT2=
EXTT3=
EXTT4=
EXTT5=
EXTT6=
EXTT7=
EXTT8=
EXTT9=
EXTT10=
EXTT11=
PLAYORDER=
